<mxfile host="app.diagrams.net" modified="2024-01-26T09:46:28.168Z" agent="Mozilla/5.0 (X11; Linux x86_64; rv:109.0) Gecko/20100101 Firefox/115.0" version="23.0.2" etag="_9E6lAR2kb-L3nCXgnR1" type="github">
  <diagram name="Page-1" id="NyxGmt1EFySPzpXkA37l">
    <mxGraphModel>
      <root>
        <mxCell id="0" />
        <mxCell id="1" parent="0" />
      </root>
    </mxGraphModel>
  </diagram>
</mxfile>
